<?xml version="1.0" encoding="utf-8"?>
<!-- Generator: Adobe Illustrator 19.1.0, SVG Export Plug-In . SVG Version: 6.00 Build 0)  -->
<svg version="1.1" id="Livetype" xmlns="http://www.w3.org/2000/svg" xmlns:xlink="http://www.w3.org/1999/xlink" x="0px" y="0px"
	 viewBox="-340 287 110 40" style="enable-background:new -340 287 110 40;" xml:space="preserve">
<style type="text/css">
	.st0{fill:#A6A6A6;}
	.st1{fill:#FFFFFF;}
</style>
<g>
	<path class="st0" d="M-236.6,287h-96.7c-0.3,0-0.5,0-0.8,0c-0.2,0-0.4,0-0.6,0c-0.5,0-0.9,0-1.4,0.1c-0.5,0.1-0.9,0.2-1.3,0.4
		c-0.4,0.2-0.8,0.5-1.1,0.8c-0.3,0.3-0.6,0.7-0.8,1.1c-0.2,0.4-0.4,0.9-0.4,1.3c-0.1,0.5-0.1,0.9-0.1,1.4c0,0.2,0,0.4,0,0.6
		c0,0.3,0,0.5,0,0.8v26.8c0,0.2,0,0.5,0,0.8c0,0.2,0,0.4,0,0.6c0,0.5,0,0.9,0.1,1.4c0.1,0.5,0.2,0.9,0.4,1.3
		c0.2,0.4,0.5,0.8,0.8,1.1c0.3,0.3,0.7,0.6,1.1,0.8c0.4,0.2,0.9,0.3,1.3,0.4c0.5,0.1,0.9,0.1,1.4,0.1c0.2,0,0.4,0,0.6,0
		c0.3,0,0.5,0,0.8,0h96.7c0.3,0,0.5,0,0.8,0c0.2,0,0.4,0,0.6,0c0.5,0,0.9,0,1.4-0.1c0.5-0.1,0.9-0.2,1.3-0.4
		c0.4-0.2,0.8-0.5,1.1-0.8c0.3-0.3,0.6-0.7,0.8-1.1c0.2-0.4,0.4-0.9,0.4-1.3c0.1-0.5,0.1-0.9,0.1-1.4c0-0.2,0-0.4,0-0.6
		c0-0.2,0-0.5,0-0.8v-26.8c0-0.3,0-0.5,0-0.8c0-0.2,0-0.4,0-0.6c0-0.5,0-0.9-0.1-1.4c-0.1-0.5-0.2-0.9-0.4-1.3
		c-0.2-0.4-0.5-0.8-0.8-1.1c-0.3-0.3-0.7-0.6-1.1-0.8c-0.4-0.2-0.9-0.4-1.3-0.4c-0.5-0.1-0.9-0.1-1.4-0.1c-0.2,0-0.4,0-0.6,0
		C-236.1,287-236.4,287-236.6,287L-236.6,287z"/>
	<path d="M-236.6,288l0.8,0c0.2,0,0.4,0,0.6,0c0.4,0,0.8,0,1.2,0.1c0.4,0.1,0.7,0.2,1.1,0.3c0.3,0.2,0.6,0.4,0.9,0.6
		c0.3,0.3,0.5,0.6,0.6,0.9c0.2,0.3,0.3,0.7,0.3,1c0.1,0.4,0.1,0.9,0.1,1.2c0,0.2,0,0.4,0,0.6c0,0.2,0,0.5,0,0.7v26.8
		c0,0.2,0,0.5,0,0.8c0,0.2,0,0.4,0,0.6c0,0.4,0,0.8-0.1,1.2c-0.1,0.4-0.2,0.7-0.3,1.1c-0.2,0.3-0.4,0.6-0.6,0.9
		c-0.3,0.3-0.6,0.5-0.9,0.6c-0.3,0.2-0.7,0.3-1,0.3c-0.4,0.1-0.9,0.1-1.2,0.1c-0.2,0-0.4,0-0.6,0c-0.2,0-0.5,0-0.8,0h-96.7
		c0,0,0,0,0,0c-0.2,0-0.5,0-0.7,0c-0.2,0-0.4,0-0.6,0c-0.3,0-0.8,0-1.2-0.1c-0.4-0.1-0.7-0.2-1.1-0.3c-0.3-0.2-0.6-0.4-0.9-0.6
		c-0.3-0.3-0.5-0.6-0.6-0.9c-0.2-0.3-0.3-0.7-0.3-1.1c-0.1-0.4-0.1-0.9-0.1-1.2c0-0.2,0-0.4,0-0.6v-0.6v-0.1v-26.8v-0.1v-0.6
		c0-0.2,0-0.4,0-0.6c0-0.4,0-0.8,0.1-1.2c0.1-0.4,0.2-0.7,0.3-1c0.2-0.3,0.4-0.6,0.6-0.9c0.3-0.3,0.6-0.5,0.9-0.6
		c0.3-0.2,0.7-0.3,1-0.3c0.4-0.1,0.9-0.1,1.2-0.1c0.2,0,0.4,0,0.6,0l0.7,0L-236.6,288"/>
	<g>
		<g>
			<path class="st1" d="M-309.9,306.8c0-3.2,2.6-4.8,2.8-4.9c-1.5-2.2-3.9-2.5-4.7-2.5c-2-0.2-3.9,1.2-4.9,1.2c-1,0-2.6-1.2-4.2-1.1
				c-2.1,0-4.1,1.3-5.2,3.2c-2.3,3.9-0.6,9.7,1.6,12.9c1.1,1.6,2.4,3.3,4,3.2c1.6-0.1,2.2-1,4.2-1c1.9,0,2.5,1,4.2,1
				c1.7,0,2.8-1.6,3.9-3.1c1.3-1.8,1.8-3.5,1.8-3.6C-306.5,311.9-309.8,310.6-309.9,306.8z"/>
			<path class="st1" d="M-313.1,297.3c0.9-1.1,1.5-2.6,1.3-4.1c-1.3,0.1-2.8,0.9-3.8,1.9c-0.8,0.9-1.5,2.5-1.3,3.9
				C-315.4,299.2-314,298.4-313.1,297.3z"/>
		</g>
	</g>
	<g>
		<path class="st1" d="M-290.5,300.1c-0.6,0.2-1.3,0.3-1.9,0.3c-1,0-1.8-0.3-2.4-0.8c-0.6-0.6-0.9-1.3-0.9-2.3c0-1,0.3-1.8,0.9-2.4
			c0.6-0.6,1.4-0.9,2.5-0.9c0.7,0,1.2,0.1,1.6,0.3l-0.2,0.8c-0.4-0.2-0.8-0.3-1.4-0.3c-0.7,0-1.3,0.2-1.7,0.6
			c-0.4,0.4-0.6,1-0.6,1.8c0,0.7,0.2,1.3,0.6,1.8c0.4,0.4,0.9,0.6,1.6,0.6c0.4,0,0.7,0,0.9-0.1v-1.7h-1.1V297h2.1L-290.5,300.1
			L-290.5,300.1z"/>
		<path class="st1" d="M-285.3,297.9c0,0.2,0,0.3,0,0.5h-3c0,0.4,0.2,0.8,0.4,1c0.3,0.2,0.6,0.3,1,0.3c0.4,0,0.9-0.1,1.2-0.2
			l0.2,0.7c-0.4,0.2-0.9,0.3-1.5,0.3c-0.7,0-1.3-0.2-1.7-0.6c-0.4-0.4-0.6-1-0.6-1.7c0-0.7,0.2-1.3,0.6-1.7c0.4-0.5,0.9-0.7,1.6-0.7
			c0.7,0,1.1,0.2,1.5,0.7C-285.4,296.9-285.3,297.3-285.3,297.9z M-286.2,297.6c0-0.3-0.1-0.6-0.2-0.8c-0.2-0.3-0.4-0.4-0.8-0.4
			c-0.3,0-0.6,0.1-0.8,0.4c-0.2,0.2-0.3,0.5-0.3,0.8L-286.2,297.6L-286.2,297.6z"/>
		<path class="st1" d="M-281.7,296.6h-1.1v2.2c0,0.6,0.2,0.8,0.6,0.8c0.2,0,0.3,0,0.4,0l0,0.8c-0.2,0.1-0.5,0.1-0.8,0.1
			c-0.4,0-0.7-0.1-0.9-0.4c-0.2-0.2-0.3-0.6-0.3-1.2v-2.3h-0.7v-0.8h0.7V295l1-0.3v1.1h1.1V296.6z"/>
		<path class="st1" d="M-276.7,294.5c0,0.2-0.1,0.3-0.2,0.4c-0.1,0.1-0.3,0.2-0.5,0.2c-0.2,0-0.3-0.1-0.4-0.2
			c-0.1-0.1-0.2-0.3-0.2-0.4s0.1-0.3,0.2-0.4c0.1-0.1,0.3-0.2,0.4-0.2c0.2,0,0.3,0.1,0.4,0.2C-276.8,294.2-276.7,294.3-276.7,294.5z
			 M-276.8,300.4h-1v-4.5h1V300.4z"/>
		<path class="st1" d="M-272.9,296.6h-1.1v2.2c0,0.6,0.2,0.8,0.6,0.8c0.2,0,0.3,0,0.4,0l0,0.8c-0.2,0.1-0.5,0.1-0.8,0.1
			c-0.4,0-0.7-0.1-0.9-0.4c-0.2-0.2-0.3-0.6-0.3-1.2v-2.3h-0.7v-0.8h0.7V295l1-0.3v1.1h1.1L-272.9,296.6L-272.9,296.6z"/>
		<path class="st1" d="M-265,298.1c0,0.7-0.2,1.3-0.6,1.7c-0.4,0.5-1,0.7-1.7,0.7c-0.7,0-1.2-0.2-1.6-0.7c-0.4-0.4-0.6-1-0.6-1.7
			c0-0.7,0.2-1.3,0.6-1.7c0.4-0.4,1-0.7,1.6-0.7c0.7,0,1.2,0.2,1.6,0.7C-265.2,296.8-265,297.4-265,298.1z M-266,298.1
			c0-0.4-0.1-0.8-0.3-1.1c-0.2-0.4-0.5-0.5-0.9-0.5c-0.4,0-0.7,0.2-0.9,0.5c-0.2,0.3-0.3,0.7-0.3,1.1c0,0.4,0.1,0.8,0.3,1.1
			c0.2,0.4,0.5,0.5,0.9,0.5c0.4,0,0.7-0.2,0.9-0.6C-266.1,298.9-266,298.5-266,298.1z"/>
		<path class="st1" d="M-259.7,300.4h-1v-2.6c0-0.8-0.3-1.2-0.9-1.2c-0.3,0-0.5,0.1-0.7,0.3c-0.2,0.2-0.3,0.5-0.3,0.8v2.7h-1v-3.2
			c0-0.4,0-0.8,0-1.3h0.9l0,0.7h0c0.1-0.2,0.3-0.4,0.5-0.5c0.3-0.2,0.6-0.3,0.9-0.3c0.4,0,0.8,0.1,1.1,0.4c0.3,0.3,0.5,0.8,0.5,1.5
			L-259.7,300.4L-259.7,300.4z"/>
	</g>
	<g>
		<path class="st1" d="M-293,306c0,0.4-0.1,0.7-0.4,0.9s-0.6,0.4-1,0.4c-0.4,0-0.7-0.1-0.9-0.4c-0.2-0.2-0.4-0.5-0.4-0.9
			c0-0.4,0.1-0.7,0.4-0.9s0.6-0.4,0.9-0.4c0.4,0,0.7,0.1,0.9,0.4C-293.1,305.4-293,305.7-293,306z M-293.2,318.5h-2.1v-9.6h2.1
			V318.5z"/>
		<path class="st1" d="M-281.7,307h-3.8v11.5h-2.1V307h-3.8v-1.8h9.7V307z"/>
		<path class="st1" d="M-272.8,318.5h-1.9l-0.1-1.5h0c-0.7,1.1-1.7,1.7-3,1.7c-0.9,0-1.7-0.3-2.3-0.9c-0.7-0.7-1-1.8-1-3.3v-5.6h2.1
			v5.3c0,1.8,0.6,2.8,1.9,2.8c0.9,0,1.6-0.5,2-1.4c0.1-0.2,0.1-0.5,0.1-0.8v-5.9h2.1v6.8C-272.9,316.6-272.9,317.6-272.8,318.5z"/>
		<path class="st1" d="M-261.6,318.5h-2.1V313c0-1.7-0.6-2.5-1.9-2.5c-0.6,0-1.1,0.2-1.5,0.7s-0.6,1-0.6,1.6v5.7h-2.1v-6.9
			c0-0.8,0-1.8-0.1-2.7h1.9l0.1,1.5h0.1c0.2-0.5,0.6-0.9,1.1-1.2c0.6-0.4,1.2-0.5,1.9-0.5c0.9,0,1.6,0.3,2.2,0.9
			c0.7,0.7,1.1,1.8,1.1,3.2L-261.6,318.5L-261.6,318.5z"/>
		<path class="st1" d="M-250.7,313.2c0,0.4,0,0.7-0.1,1h-6.4c0,0.9,0.3,1.7,0.9,2.2c0.5,0.4,1.2,0.7,2.1,0.7c0.9,0,1.8-0.2,2.6-0.5
			l0.3,1.5c-0.9,0.4-2,0.6-3.2,0.6c-1.5,0-2.7-0.4-3.5-1.3c-0.9-0.9-1.3-2-1.3-3.5c0-1.4,0.4-2.7,1.2-3.6c0.8-1,1.9-1.5,3.4-1.5
			c1.4,0,2.4,0.5,3.1,1.5C-251,311-250.7,312.1-250.7,313.2z M-252.8,312.7c0-0.6-0.1-1.2-0.4-1.6c-0.4-0.6-0.9-0.9-1.7-0.9
			c-0.7,0-1.3,0.3-1.7,0.9c-0.4,0.5-0.6,1-0.6,1.7L-252.8,312.7L-252.8,312.7z"/>
		<path class="st1" d="M-242.5,315.7c0,0.9-0.3,1.6-1,2.1c-0.7,0.5-1.6,0.8-2.7,0.8c-1.1,0-2-0.2-2.8-0.7l0.5-1.6
			c0.7,0.4,1.5,0.7,2.4,0.7c1.1,0,1.6-0.4,1.6-1.2c0-0.4-0.1-0.6-0.4-0.9c-0.2-0.2-0.7-0.5-1.3-0.7c-1.7-0.6-2.6-1.6-2.6-2.8
			c0-0.8,0.3-1.5,0.9-2.1c0.6-0.6,1.5-0.8,2.5-0.8c0.9,0,1.8,0.2,2.4,0.6l-0.5,1.5c-0.6-0.4-1.3-0.6-2-0.6c-0.4,0-0.8,0.1-1,0.3
			c-0.3,0.2-0.4,0.5-0.4,0.8c0,0.3,0.1,0.6,0.4,0.8c0.2,0.2,0.7,0.4,1.3,0.6C-243.3,313.5-242.5,314.4-242.5,315.7z"/>
	</g>
</g>
</svg>
